<svg width="40" height="40" fill="none" xmlns="http://www.w3.org/2000/svg"><path d="M3.752 15.028h32.496s.908-.744 0-1.692l-16.244-9.56-16.252 9.556s-1.124 1.012 0 1.696zm33.556 19.884l-1.96-1.704c-.108-.092-.352-.168-.552-.168l-29.192.044c-.196 0-.456.072-.576.16L2.72 34.92c-.12.088-.216.248-.216.356v.748c0 .108.16.2.36.2h34.284c.196 0 .36-.088.36-.2v-.744a.639.639 0 00-.2-.368zm-5.148-18.56h2.992v14.996H32.16V16.352zm-4.896 0h2.992v14.996h-2.992V16.352zm-17.056 0H13.2v14.996h-2.992V16.352zm-4.896 0h2.992v14.996H5.312V16.352zm14.752 14.976c.228 0 .456-.032.672-.096v-1.816c.928-.208 1.636-.608 2.124-1.2.484-.588.728-1.312.728-2.168 0-.512-.064-.936-.188-1.276-.124-.34-.3-.628-.524-.86a3.072 3.072 0 00-.824-.604 13.92 13.92 0 00-1.08-.5l-.94-.392a11.848 11.848 0 01-.468-.204 2.148 2.148 0 01-.424-.26c-.124-.1-.224-.22-.296-.368a1.202 1.202 0 01-.108-.532c0-.24.048-.436.14-.588a.98.98 0 01.36-.352 1.35 1.35 0 01.492-.164 4.19 4.19 0 01.54-.04 6.607 6.607 0 011.404.14c.184.04.356.096.516.156.16.064.32.124.476.188.272-.584.44-1.18.5-1.784a11.826 11.826 0 00-1.22-.352 8.284 8.284 0 00-1.208-.18v-1.612a2.651 2.651 0 00-.688-.092c-.228 0-.456.032-.672.092v1.66c-.94.116-1.676.444-2.208.988-.532.544-.8 1.284-.8 2.224 0 .44.056.808.164 1.112.108.304.268.568.468.792.204.224.448.416.728.58.28.164.596.316.94.464l.832.36c.176.084.36.164.548.236.188.072.356.16.508.268.152.104.276.236.376.4.1.16.148.368.148.62 0 .5-.18.864-.54 1.088-.36.224-.868.336-1.528.336-.44 0-.852-.032-1.236-.1a6.177 6.177 0 01-1.236-.368c-.116.336-.216.656-.296.964-.084.308-.14.612-.172.916.26.104.512.192.752.268.24.072.484.132.728.18.244.048.504.08.776.1.272.02.58.032.924.032h.124v1.66c.228.052.46.084.688.084z" fill="#558EFF"/></svg>