<svg width="14" height="14" fill="none" xmlns="http://www.w3.org/2000/svg"><g clip-path="url(#clip0_0_4327)"><path d="M11.203 9.852a.33.33 0 01-.038-.4 6.015 6.015 0 00.977-3.29 6.078 6.078 0 00-6.07-6.07A6.078 6.078 0 000 6.163a6.077 6.077 0 006.072 6.07c1.303 0 2.51-.418 3.501-1.121a.315.315 0 01.394.028l2.17 2.17a5 5 0 01.276.26l.257.256a.261.261 0 00.368 0l.885-.884a.262.262 0 00.001-.37l-2.721-2.72zM9.744 8.99a4.616 4.616 0 01-3.672 1.814 4.649 4.649 0 01-4.644-4.642 4.65 4.65 0 014.644-4.644 4.649 4.649 0 014.642 4.644 4.618 4.618 0 01-.97 2.828z" fill="#CACCCF"/></g><defs><clipPath id="clip0_0_4327"><path fill="#fff" d="M0 0h14v14H0z"/></clipPath></defs></svg>