<svg width="40" height="40" fill="none" xmlns="http://www.w3.org/2000/svg"><path d="M36.492 9.708h-5.968a.7.7 0 01-.7-.7V3.164a.705.705 0 00-.704-.704H10.876c-.388 0-.7.316-.7.704v5.844c0 .388-.316.7-.704.7H3.508A3.513 3.513 0 000 13.22v19.884a3.507 3.507 0 003.508 3.508H5.2v.18c0 .404.624.736 1.4.736h5.672c.776 0 1.4-.332 1.4-.736v-.18h13.216v.18c0 .404.632.736 1.404.736h5.672c.772 0 1.404-.332 1.404-.736v-.18h1.124A3.507 3.507 0 0040 33.104V13.216a3.512 3.512 0 00-3.508-3.508zM16.14 6.556c0-.388.316-.704.7-.704h6.316c.392 0 .704.316.704.704v2.452a.7.7 0 01-.704.7h-1.468v-.02c0-.384-.316-.7-.7-.7h-1.992a.7.7 0 00-.7.7v.02H16.84a.7.7 0 01-.7-.7V6.556zm9.208 18.228a.34.34 0 01-.344.34H22.16a.34.34 0 00-.344.34v2.852a.34.34 0 01-.34.34h-2.384a.34.34 0 01-.344-.34v-2.852a.34.34 0 00-.34-.34h-2.852a.336.336 0 01-.336-.34v-2.388c0-.184.152-.34.336-.34h2.852c.188 0 .34-.148.34-.34v-2.848a.34.34 0 01.344-.34h2.384a.34.34 0 01.34.34v2.848c0 .192.152.34.344.34h2.844c.192 0 .344.156.344.34v2.388z" fill="#558EFF"/></svg>