<svg width="40" height="40" fill="none" xmlns="http://www.w3.org/2000/svg"><g clip-path="url(#clip0_0_4134)"><path d="M21.776 16.764v.724c0 4.284-.004 8.572.012 12.86 0 .416-.12.512-.516.504-1.272-.024-2.54-.012-3.812-.004-.148 0-.364-.084-.38.196-.016.304.216.24.384.24l3.904.004c.128 0 .336-.064.364.088.04.212-.196.18-.328.216l-3.932 1.072c-.088.024-.18.036-.264.072-.168.068-.148.22-.12.352.032.176.184.104.256.068.72-.364 1.356-.056 2.008.212.704.292 1.416.568 2.132.832.224.084.324.204.288.44-.04.276-.256.164-.396.168-1.3.008-2.6.004-3.904.008-.16 0-.388-.088-.4.224-.012.316.22.232.384.232.516.008 1.032.004 1.58.088-.56.324-1.112.656-1.68.964-.268.144-.352.316-.216.648.668-.38 1.36-.712 1.976-1.148.724-.512 1.5-.616 2.34-.56.232.016.312.068.324.312.048 1.088.056 1.096-.992 1.3-1.08.208-2.16.4-3.244.6-.248.048-.472.06-.52.428-.16 1.268-1.224 2.156-2.428 2.084-1.312-.084-2.26-1.076-2.264-2.42-.012-2.588 0-5.176 0-7.76 0-.66-.004-1.316.004-1.976.004-.204-.048-.276-.268-.324-1.46-.328-2.096-1.168-2.096-2.672.004-3.568 0-7.132 0-10.7 0-.384 0-.768.104-1.14a2.333 2.333 0 012.244-1.708c1.36-.012 2.724.008 4.088-.016.364-.004.42.124.416.448-.012 4.256-.008 8.512-.004 12.768 0 .136 0 .276.004.412.004.14.076.24.22.24.14 0 .22-.1.232-.236.012-.136.008-.276.008-.412 0-4.24.008-8.48-.012-12.72 0-.42.12-.5.508-.492 1.3.024 2.6.016 3.904.004.628-.004 1.164.208 1.64.6 1.42 1.164 2.836 2.332 4.268 3.484.668.536 1.004 1.216.984 2.068 0 .108-.004.216-.004.32.004.32-.1.704.04.948.164.284.584.076.888.116.292.036.468.172.468.46.004 1.652.088 3.308-.04 4.956-.06.8-.496 1.504-.952 2.16-.592.856-1.204 1.696-1.82 2.536-.328.448-.472.92-.468 1.492.024 2.908.008 5.816.008 8.724 0 .136.008.276-.016.412-.048.28-.224.444-.508.42-.26-.02-.42-.188-.432-.448-.016-.276-.008-.552-.008-.828 0-2.756-.012-5.512.016-8.268a2.372 2.372 0 00-.472-1.492c-.604-.828-1.212-1.652-1.792-2.5-.468-.684-.868-1.404-1-2.244a4.17 4.17 0 01-.056-.548 711.394 711.394 0 010-4.132c0-.572.136-.704.696-.708.092 0 .188.012.276-.004.148-.032.36.112.432-.128.056-.196-.04-.344-.204-.468-.58-.444-1.164-.912-1.852-1.448zm4.448 11.852c.704-1.028 1.476-1.936 2.1-2.952.344-.564.688-1.148.708-1.816.04-1.268.012-2.54.016-3.808 0-.184-.044-.284-.256-.276-.204.004-.212.128-.212.276v.736c0 .796.016 1.592-.004 2.384-.036 1.236-1.076 2.24-2.32 2.272-1.196.028-2.284-.904-2.356-2.112-.064-1.052-.028-2.108-.04-3.164 0-.176.052-.396-.248-.38-.28.016-.188.236-.188.38-.008 1.192 0 2.388-.004 3.576 0 .392.104.756.264 1.104.64 1.388 1.676 2.5 2.54 3.78zM17.06 0c2.612.016 4.736 2.152 4.712 4.748-.02 2.58-2.156 4.696-4.728 4.692-2.632-.004-4.728-2.16-4.708-4.844.02-2.504 2.188-4.612 4.724-4.596zm1.856 39.904c.576-.82 1.124-1.64 1.724-2.42.236-.308.668-.232 1.02-.276.12-.016.1.12.112.208.188 1.528-1.332 2.88-2.856 2.488zm1.148-2.424c-.544.78-1.028 1.46-1.504 2.148-.108.156-.208.128-.344.048-.54-.316-.876-.784-1.08-1.368-.084-.232.032-.3.224-.336.868-.156 1.732-.316 2.704-.492zm-1.112-4.752c.936-.252 1.756-.468 2.576-.7.196-.056.248.012.244.192-.004.456 0 .916 0 1.372 0 .16-.052.224-.22.16-.824-.328-1.656-.656-2.6-1.024z" fill="#558EFF"/></g><defs><clipPath id="clip0_0_4134"><path fill="#fff" d="M0 0h40v40H0z"/></clipPath></defs></svg>