<svg width="40" height="40" fill="none" xmlns="http://www.w3.org/2000/svg"><path d="M27.912 20.76a1.98 1.98 0 001.984 1.98 1.98 1.98 0 100-3.96 1.983 1.983 0 00-1.984 1.98zm-1.404-.636a.625.625 0 00-.624.636v3.824c0 .352.26.66.608.66h4.672c.352 0 .636-.3.636-.652a.646.646 0 00-.636-.652H27.34c-.112 0-.216-.088-.216-.204V20.76a.616.616 0 00-.616-.636zm-17.56 4.868h15.924c.232 0 .396-.176.396-.408v-3.04c0-.236-.164-.456-.396-.456H10.648c-1.176 0-2.12.904-2.12 1.976v1.52c-.004.232.184.408.42.408zM23.28 12.168c2.508 1.696 5.048 2.32 5.676 1.392.632-.928-.888-3.056-3.396-4.756-2.504-1.696-5.044-2.316-5.676-1.392-.628.928.892 3.06 3.396 4.756zm1.508-.244c-.136.204-.692.068-1.236-.304-.548-.368-.884-.836-.744-1.036.14-.2.692-.068 1.236.304.548.368.88.832.744 1.036zm2.912.888c-.14.204-.688.068-1.236-.3-.548-.376-.876-.836-.74-1.04.136-.2.692-.068 1.24.304.544.372.876.836.736 1.036zm-3.72-3.76c.136-.2.692-.068 1.236.304.552.368.876.836.744 1.036-.14.2-.692.068-1.24-.3-.548-.372-.876-.836-.74-1.04zm-2.932-.94c.14-.2.696-.068 1.24.304.548.368.884.836.744 1.036-.14.2-.696.068-1.236-.304-.552-.368-.884-.836-.748-1.036zm8.572 4.464a1.494 1.494 0 00-.028-1.696 11.77 11.77 0 00-2.636-2.632l2.076-2.656c.1-.128.148-.28.148-.44V.712a.714.714 0 00-1.428 0v4.192l-2.004 2.58s-1.66-1.14-3.764-1.532a1.24 1.24 0 00-1.22.472l-.012.016s2.424.18 5.132 2.076c2.944 2.084 3.736 4.06 3.736 4.06zm5.136 13.228H5.24a3.406 3.406 0 003.412 3.404h9.544s.004.004.004.008v3.76c-.308.02-.556.32-.556.696v2.44c0 .376.248.676.556.696v2.576c0 .348.28.612.632.612h2.328c.352 0 .636-.26.636-.612V29.212h9.548a3.414 3.414 0 003.412-3.408z" fill="#558EFF"/></svg>